<?xml version="1.0" standalone="no"?><!DOCTYPE svg PUBLIC "-//W3C//DTD SVG 1.1//EN" "http://www.w3.org/Graphics/SVG/1.1/DTD/svg11.dtd"><svg t="1710246316693" class="icon" viewBox="0 0 1024 1024" version="1.1" xmlns="http://www.w3.org/2000/svg" p-id="4101" width="32" height="32" xmlns:xlink="http://www.w3.org/1999/xlink"><path d="M697.248 223.168L854.72 496a32 32 0 0 1 0 32l-157.504 272.832a32 32 0 0 1-27.712 16h-315.072a32 32 0 0 1-27.712-16L169.28 528a32 32 0 0 1 0-32l157.504-272.832a32 32 0 0 1 27.712-16h315.072a32 32 0 0 1 27.712 16z m-46.208 48l-278.08-0.032-139.072 240.832 139.072 240.864h278.08l139.072-240.864-139.072-240.832z" fill="#2c2c2c" p-id="4102"></path><path d="M622.848 448a128 128 0 1 1-221.696 128 128 128 0 0 1 221.696-128z m-55.424 32a64 64 0 1 0-110.848 64 64 64 0 0 0 110.848-64z" fill="#2c2c2c" p-id="4103"></path></svg>