<?xml version="1.0" encoding="UTF-8" standalone="no"?>
<!DOCTYPE svg PUBLIC "-//W3C//DTD SVG 1.1//EN" "http://www.w3.org/Graphics/SVG/1.1/DTD/svg11.dtd">
<svg width="456" height="456" viewBox="-512 -512 2048 2048" version="1.1" xmlns="http://www.w3.org/2000/svg" xmlns:xlink="http://www.w3.org/1999/xlink" xml:space="preserve" xmlns:serif="http://www.serif.com/" style="fill-rule:evenodd;clip-rule:evenodd;stroke-linejoin:round;stroke-miterlimit:2;">
    <path d="M664.64 500.778667c109.226667 101.248 185.770667 204.522667 185.770667 376.213333 0 44.117333-35.242667 79.850667-78.698667 79.850667s-78.698667-35.733333-78.698667-79.850667c0-128.810667-25.92-288.426667-100.778666-357.845333-17.024-15.786667-17.322667-36.16-6.677334-47.381334 16.085333-16.981333 64.042667 15.061333 79.082667 29.013334z" fill="#CF411C" p-id="13375"></path>
	<path d="M664.64 500.778667c66.901333 62.016 121.557333 124.8 153.856 203.626666 9.834667 24.021333 20.693333 104.704-39.296 117.738667-62.122667 13.504-90.730667-41.386667-93.269333-61.866667-12.032-96.981333-40.533333-191.829333-93.696-241.130666-17.024-15.786667-17.322667-36.16-6.677334-47.381334 16.085333-16.981333 64.042667 15.061333 79.082667 29.013334z" fill="#F66E2E" p-id="13376"></path>
	<path d="M664.64 500.778667c34.752 32.213333 66.197333 64.618667 92.906667 99.370666 12.266667 15.978667 52.181333 74.325333 0 104.277334-52.16 29.952-86.912-29.952-91.456-46.272-15.957333-57.386667-39.872-107.498667-73.856-139.008-17.024-15.786667-17.322667-36.16-6.677334-47.381334 16.085333-16.981333 64.042667 15.061333 79.082667 29.013334z" fill="#FD9816" p-id="13377"></path>
	<path d="M362.538667 489.386667l-5.205334 2.730666-4.266666 2.496-14.784 9.301334-14.464 9.386666c-4.778667 3.157333-9.493333 6.336-14.165334 9.557334l-13.845333 9.685333c-97.962667 70.037333-170.026667 154.069333-198.016 296.021333-8.533333 43.242667 19.2 84.928 61.909333 93.12 42.709333 8.192 84.224-20.245333 92.757334-63.488l1.664-8.277333 3.626666-16.725333c1.237333-5.610667 2.56-11.264 3.946667-16.917334l4.309333-17.066666c28.458667-108.373333 78.293333-221.248 149.034667-269.290667l5.632-3.648c19.797333-12.288 24.021333-32.213333 15.722667-45.226667-7.616-11.946667-30.250667-8.384-50.773334-1.322666l-7.125333 2.624-10.005333 4.224-5.973334 2.837333z" fill="#CF411C" p-id="13378"></path>
	<path d="M162.517333 665.322667c-0.704 1.088-1.450667 2.304-2.218666 3.669333l-2.922667 5.610667-2.965333 6.613333-1.152 2.901333-2.24 6.186667a150.912 150.912 0 0 0-1.984 6.357333l-1.770667 6.698667c-7.317333 30.741333-5.738667 69.098667 31.104 84.821333 56.789333 24.234667 94.933333-20.8 102.976-41.365333l0.64-1.749333c30.570667-92.842667 76.906667-180.48 138.666667-218.794667 19.818667-12.288 24.042667-32.213333 15.744-45.226667-8.064-12.650667-32.96-7.893333-54.378667-0.042666l-6.976 2.730666-6.549333 2.837334-3.072 1.429333-6.869334 3.456-5.482666 3.157333c-77.738667 48.213333-143.573333 99.498667-190.549334 170.709334z" fill="#F66E2E" p-id="13379"></path>
	<path d="M253.717333 565.013333l-12.373333 10.624-2.730667 2.538667-4.8 4.693333-3.52 3.712-3.669333 4.096-3.690667 4.48-1.770666 2.261334-3.434667 4.778666c-14.613333 21.290667-23.850667 50.026667 4.693333 74.624 30.08 25.941333 60.309333 11.84 79.509334-5.056l4.224-3.946666c2.005333-1.962667 3.861333-3.946667 5.546666-5.845334l3.2-3.861333 1.429334-1.834667 2.389333-3.392 0.981333-1.536 1.514667-2.688c25.386667-50.453333 56.490667-93.184 93.269333-118.357333l6.186667-4.053333c19.797333-12.266667 24.021333-32.213333 15.722667-45.205334-8.064-12.650667-32.96-7.893333-54.378667-0.042666l-6.976 2.730666-6.549333 2.837334-3.072 1.429333-6.869334 3.456-5.482666 3.157333c-35.882667 22.250667-69.226667 45.162667-99.349334 70.4z" fill="#FD9816" p-id="13380"></path>
	<path d="M336.234667 399.957333l-2.005334-0.106666c-51.264-2.346667-93.653333 0-139.669333 15.146666-33.365333 10.965333-75.797333 35.2-96.362667 57.813334a48.618667 48.618667 0 0 0 1.493334 67.562666c18.581333 18.88 48.704 14.4 62.890666-6.976 46.293333-69.76 96.106667-92.650667 164.010667-103.658666 1.493333-0.234667 3.157333-0.426667 4.992-0.554667l5.888-0.32 20.117333-0.469333c12.224-0.469333 22.741333-1.728 22.741334-6.613334 0-12.928-18.986667-18.496-33.706667-20.693333l-5.589333-0.725333-4.8-0.426667z" fill="#F66E2E" p-id="13381"></path>
	<path d="M336.234667 399.957333l-2.005334-0.106666c-51.264-2.346667-93.653333 0-139.669333 15.146666-16.149333 5.312-34.410667 13.717333-51.285333 23.552-8.768 5.098667-30.293333 31.36-7.082667 54.186667 22.250667 21.930667 45.738667 12.714667 51.626667 7.466667l0.682666-0.64c39.253333-43.925333 82.624-60.842667 138.090667-69.824 1.493333-0.234667 3.157333-0.426667 4.992-0.554667l5.888-0.32 20.117333-0.469333c12.224-0.469333 22.741333-1.728 22.741334-6.613334 0-12.928-18.986667-18.496-33.706667-20.693333l-5.589333-0.725333-4.8-0.426667z" fill="#FD9816" p-id="13382"></path>
	<path d="M336.234667 399.957333l-2.005334-0.106666c-47.850667-2.197333-87.978667-0.298667-130.517333 12.266666l-10.090667 3.2-2.389333 0.917334-2.88 1.28-3.2 1.685333c-11.136 6.293333-25.173333 19.562667-14.592 43.605333 8.725333 19.754667 28.714667 16.981333 40.192 12.714667l3.306667-1.386667 2.602666-1.322666a21.184 21.184 0 0 0 1.002667-0.597334l0.768-0.533333c31.466667-23.893333 66.389333-35.178667 108.16-41.941333 1.493333-0.234667 3.157333-0.426667 4.992-0.554667l5.888-0.32 20.117333-0.469333c12.224-0.469333 22.741333-1.728 22.741334-6.613334 0-12.928-18.986667-18.496-33.706667-20.693333l-5.589333-0.725333-4.8-0.426667z" fill="#FFD217" p-id="13383"></path>
	<path d="M615.936 265.28c41.749333-30.293333 78.570667-51.754667 125.269333-64.490667 33.877333-9.216 82.453333-12.373333 111.872-4.736 25.450667 6.592 40.490667 31.36 35.008 57.472-5.461333 26.112-30.805333 34.624-56.490666 28.906667-77.184-17.152-133.312-16.597333-196.181334 11.712l-4.906666 2.325333-11.349334 5.674667-5.973333 2.88c-10.922667 5.056-21.226667 8.661333-24.106667 4.117333-6.613333-10.325333 4.8-24.554667 15.530667-34.496l4.202667-3.733333 3.861333-3.157333 3.264-2.474667z" fill="#F66E2E" p-id="13384"></path>
	<path d="M615.936 265.28c41.749333-30.293333 78.570667-51.754667 125.269333-64.490667 14.186667-3.84 30.933333-6.634667 47.744-8.021333l9.514667-0.64 2.773333 0.042667 3.413334 0.213333c0.597333 0.042667 1.216 0.106667 1.856 0.213333l4.053333 0.597334c15.36 2.858667 35.968 12.672 30.016 43.178666-5.610667 28.693333-31.189333 35.498667-49.6 36.629334l-5.269333 0.192h-2.432l-6.186667-0.256-4.138667-0.341334c-49.429333-4.970667-91.690667 0.917333-137.536 21.546667l-4.906666 2.325333-11.349334 5.674667-5.973333 2.88c-10.922667 5.056-21.226667 8.661333-24.106667 4.117333-6.613333-10.325333 4.8-24.554667 15.530667-34.496l4.202667-3.733333 3.861333-3.157333 3.264-2.474667z" fill="#FD9816" p-id="13385"></path>
	<path d="M615.936 265.28c38.762667-28.138667 73.28-48.64 115.413333-61.632l10.88-3.093333 4.352-0.768 3.84-0.426667 2.176-0.149333 4.693334-0.128c17.045333 0 40.490667 5.546667 40.490666 33.258666 0 29.141333-21.973333 36.906667-41.258666 38.613334l-5.162667 0.32-4.949333 0.106666h-20.693334c-30.954667 0-59.669333 8.96-90.304 22.762667l-4.906666 2.325333-11.349334 5.674667-5.973333 2.88c-10.922667 5.056-21.226667 8.661333-24.106667 4.117333-6.613333-10.325333 4.8-24.554667 15.530667-34.496l4.202667-3.733333 3.861333-3.157333 3.264-2.474667z" fill="#FFD217" p-id="13386"></path>
	<path d="M644.650667 377.194667c66.517333-8.96 128.213333-7.381333 189.162666 10.453333 45.418667 13.269333 102.890667 40.469333 132.245334 67.584 25.386667 23.466667 35.84 71.296 13.738666 98.048-22.122667 26.730667-69.568 28.053333-94.186666 3.946667l-14.250667-13.909334-9.536-9.130666-9.578667-8.96a744.96 744.96 0 0 0-4.821333-4.437334l-9.813333-8.704c-49.365333-42.922667-106.24-77.248-200.192-85.632l-13.738667-1.194666-7.04-0.746667c-15.104-1.792-28.693333-5.013333-29.568-13.418667-1.386667-13.12 20.053333-23.573333 38.357333-29.333333l6.293334-1.834667a145.066667 145.066667 0 0 1 2.986666-0.746666l5.418667-1.216c1.664-0.32 3.2-0.576 4.522667-0.768z" fill="#CF411C" p-id="13387"></path>
	<path d="M644.650667 377.194667c62.613333-8.448 120.96-7.530667 178.410666 7.466666l17.493334 4.949334 8.725333 2.709333 4.906667 1.642667 5.141333 1.877333 5.354667 2.090667 5.482666 2.325333 2.752 1.237333 5.504 2.688c29.290667 15.04 55.722667 41.045333 28.864 84.757334-15.893333 25.813333-51.029333 20.373333-75.349333 11.413333l-6.08-2.410667-5.461333-2.453333a118.464 118.464 0 0 1-2.474667-1.216l-4.330667-2.304a60.544 60.544 0 0 1-3.434666-2.112l-1.344-0.917333c-43.242667-31.744-95.082667-55.68-171.392-62.506667l-13.738667-1.173333-7.04-0.746667c-15.104-1.792-28.693333-5.013333-29.568-13.418667-1.386667-13.12 20.053333-23.573333 38.357333-29.333333l6.293334-1.834667a145.066667 145.066667 0 0 1 2.986666-0.746666l5.418667-1.216c1.664-0.32 3.2-0.576 4.522667-0.768z" fill="#F66E2E" p-id="13388"></path>
	<path d="M644.650667 377.194667c39.765333-5.376 91.370667-7.573333 137.493333-1.472l6.378667 1.002666 4.224 0.853334 4.736 1.130666 2.496 0.682667 5.184 1.642667c19.392 6.613333 41.386667 20.885333 33.685333 51.285333-8.405333 33.194667-39.744 33.621333-61.418667 29.376l-5.184-1.130667-4.693333-1.237333-4.053333-1.237333-4.650667-1.642667c-27.797333-10.709333-83.477333-26.624-121.429333-29.994667l-13.738667-1.194666-7.04-0.746667c-15.104-1.792-28.693333-5.013333-29.568-13.418667-1.386667-13.12 20.053333-23.573333 38.357333-29.333333l6.293334-1.834667a145.066667 145.066667 0 0 1 2.986666-0.746666l5.418667-1.216c1.664-0.32 3.2-0.576 4.522667-0.768z" fill="#FD9816" p-id="13389"></path>
	<path d="M378.730667 346.730667c-55.893333-37.653333-112.064-63.658667-174.528-74.730667-46.549333-8.256-109.973333-9.386667-148.074667 1.92-32.96 9.813333-63.04 48.170667-54.72 82.048 8.32 33.856 50.410667 56.149333 82.944 45.44l18.816-6.186667 12.501333-3.968 12.501334-3.797333 12.522666-3.605333c64.853333-17.898667 132.245333-25.024 223.253334 10.346666l16.170666 6.293334c15.530667 5.76 30.933333 10.005333 35.712 2.304 6.912-11.178667-7.829333-30.122667-21.802666-43.413334l-4.864-4.458666a147.328 147.328 0 0 0-2.346667-2.005334l-4.352-3.498666a77.952 77.952 0 0 0-3.733333-2.688z" fill="#CF411C" p-id="13390"></path>
	<path d="M378.730667 346.730667c-52.629333-35.434667-105.450667-60.565333-163.584-72.64l-16-2.986667-8.533334-1.365333-7.530666-0.938667-5.397334-0.533333-5.674666-0.405334-5.845334-0.213333h-5.973333c-32.106667 0.682667-66.858667 12.608-61.482667 64.853333 3.882667 37.845333 52.629333 43.52 75.797334 42.474667l4.693333-0.32 3.690667-0.512c52.586667-9.301333 109.525333-7.744 181.056 20.053333l16.170666 6.293334c15.530667 5.76 30.933333 10.005333 35.712 2.304 6.912-11.178667-7.829333-30.122667-21.802666-43.413334l-4.864-4.458666a147.328 147.328 0 0 0-2.346667-2.005334l-4.352-3.498666a77.952 77.952 0 0 0-3.733333-2.688z" fill="#F66E2E" p-id="13391"></path>
	<path d="M378.730667 346.730667c-31.04-20.906667-72.426667-43.882667-113.493334-59.093334l-10.666666-3.776-4.949334-1.514666-4.16-1.130667-4.736-1.066667a114.005333 114.005333 0 0 0-2.56-0.512l-5.354666-0.853333c-20.288-2.645333-46.229333 0.384-52.458667 31.146667-6.784 33.557333 21.205333 47.872 42.517333 53.696l5.162667 1.28c0.832 0.213333 1.642667 0.384 2.432 0.533333l4.48 0.832 5.482667 0.746667 1.408 0.149333c29.632 2.730667 86.528 13.205333 122.112 27.029333l16.170666 6.293334c15.530667 5.76 30.933333 10.005333 35.712 2.304 6.912-11.178667-7.829333-30.122667-21.802666-43.413334l-4.864-4.458666a147.328 147.328 0 0 0-2.346667-2.005334l-4.352-3.498666a77.952 77.952 0 0 0-3.733333-2.688z" fill="#FD9816" p-id="13392"></path>
	<path d="M568.149333 257.877333l7.701334-14.890666c28.266667-53.802667 57.6-99.626667 117.909333-154.837334 34.005333-31.146667 95.296-56.277333 134.016-65.109333 33.493333-7.658667 78.122667 11.093333 87.04 44.8 8.917333 33.728-17.258667 73.92-50.837333 80.554667-86.741333 17.130667-173.696 59.370667-254.570667 157.077333l-9.621333 11.797333-4.949334 5.781334c-9.088 10.261333-18.346667 18.154667-26.688 15.466666-20.096-6.485333-14.997333-38.250667-7.808-60.8l2.069334-6.144 1.066666-2.837333 2.005334-5.077333 1.856-4.138667 0.810666-1.642667z" fill="#CF411C" p-id="13393"></path>
	<path d="M568.149333 257.877333l7.701334-14.890666c26.986667-51.349333 54.933333-95.424 109.866666-147.370667l9.877334-9.130667 4.778666-4.202666 6.08-4.992c7.722667-6.122667 17.493333-12.970667 27.306667-17.28 30.954667-13.610667 81.493333-13.610667 97.706667 28.138666 16.234667 41.749333-17.92 72.512-47.765334 85.034667l-9.194666 3.925333-12.544 5.632-7.317334 3.413334-9.066666 4.48-4.565334 2.368-1.792 1.002666c-44.330667 25.066667-87.893333 60.8-129.813333 111.466667l-9.621333 11.797333-4.949334 5.781334c-9.088 10.261333-18.346667 18.154667-26.688 15.466666-20.096-6.485333-14.997333-38.250667-7.808-60.8l2.069334-6.144 1.066666-2.837333 2.005334-5.077333 1.856-4.138667 0.810666-1.642667z" fill="#F66E2E" p-id="13394"></path>
	<path d="M567.338667 259.52l0.810666-1.642667c24.661333-48.256 48.085333-89.237333 89.984-134.464l8.533334-8.96 1.493333-1.173333 2.218667-1.557333 2.901333-1.792 3.456-1.941334c16.853333-8.874667 49.408-18.688 68.693333 15.744 16.448 29.333333-1.962667 56.832-18.837333 73.898667l-4.352 4.202667-4.138667 3.712-3.776 3.157333-5.909333 4.544-2.432 1.728c-32.853333 22.997333-65.173333 52.565333-96.576 90.496l-9.621333 11.797333-4.949334 5.781334c-9.088 10.261333-18.346667 18.154667-26.688 15.466666-20.096-6.485333-14.997333-38.250667-7.808-60.8l2.069334-6.144 1.066666-2.837333 2.005334-5.077333 1.856-4.138667z" fill="#FD9816" p-id="13395"></path>
	<path d="M495.786667 270.506667l-0.213334-5.738667c-1.536-44.458667-11.008-94.805333-46.976-147.050667-18.56-26.986667-61.44-67.242667-87.68-75.797333-39.296-12.8-65.365333 6.293333-76.8 28.138667-11.456 21.845333 0.085333 60.8 22.208 70.826666 55.168 24.917333 104.170667 67.136 143.893334 142.336l5.717333 11.178667 4.117333 8.32c5.141333 10.069333 10.816 19.050667 17.834667 18.474667 13.418667-1.088 17.024-20.181333 17.792-36.309334l0.170667-6.250666-0.085334-8.128z" fill="#CF411C" p-id="13396"></path>
	<path d="M495.786667 270.506667l-0.213334-5.738667c-1.536-44.458667-11.008-94.805333-46.976-147.050667-6.741333-9.792-16.682667-21.333333-27.861333-32.469333-10.346667-10.304-53.824-31.872-76.565333 4.053333-20.949333 33.088-4.202667 61.12 9.984 76.778667l3.477333 3.626667 1.642667 1.642666 4.416 4.032 3.221333 2.709334c30.613333 24.810667 58.474667 58.368 82.858667 104.277333l6.165333 12.032 4.117333 8.32c5.141333 10.069333 10.816 19.050667 17.834667 18.474667 13.418667-1.088 17.024-20.181333 17.792-36.309334l0.170667-6.250666-0.085334-8.128z" fill="#F66E2E" p-id="13397"></path>
	<path d="M495.786667 270.506667l-0.213334-5.738667c-1.237333-35.690667-7.573333-75.157333-28.608-116.330667l-4.778666-8.896-1.216-1.92-2.773334-4.053333-2.496-3.221333a88.533333 88.533333 0 0 0-1.408-1.706667l-3.136-3.541333c-11.733333-12.416-31.146667-24.832-53.162666-6.421334-23.786667 19.882667-21.76 47.338667-17.130667 63.573334l1.322667 4.138666c0.213333 0.64 0.426667 1.258667 0.661333 1.834667l1.322667 3.136 0.618666 1.28 1.066667 1.984c0.32 0.512 0.576 0.853333 0.789333 1.066667 22.976 22.549333 44.16 50.944 63.232 86.890666l6.058667 11.818667 4.117333 8.32c5.141333 10.069333 10.816 19.050667 17.834667 18.474667 13.418667-1.088 17.024-20.181333 17.792-36.309334l0.170667-6.250666-0.085334-8.128z" fill="#FD9816" p-id="13398"></path>
	<path d="M459.733333 807.061333c39.082667 6.037333 72.149333-30.293333 72.149334-72.106666s1.642667-197.269333-25.024-197.269334c-26.688 0-90.389333 143.04-95.466667 185.344-5.098667 42.304 9.28 77.994667 48.341333 84.053334z" fill="#F66E2E" p-id="13399"></path>
	<path d="M531.584 677.013333c-1.088-60.501333-5.738667-139.328-24.746667-139.328-18.602667 0-55.232 69.610667-77.397333 126.08-4.842667 12.330667-8.768 83.584 41.706667 83.584 50.496 0 60.650667-58.197333 60.437333-70.336z" fill="#FD9816" p-id="13400"></path>
	<path d="M529.664 626.88c-2.858667-42.368-7.466667-89.194667-22.826667-89.194667-15.338667 0-39.146667 42.666667-57.941333 80.042667-4.48 8.896-8.64 52.778667 22.250667 60.373333 45.034667 11.093333 59.306667-39.850667 58.517333-51.2z" fill="#FFD217" p-id="13401"></path>
	<path d="M304.490667 934.229333a68.437333 67.456 90 1 0 134.912 0 68.437333 67.456 90 1 0-134.912 0Z" fill="#FC5965" p-id="13402"></path>
	<path d="M338.922667 901.653333a32.576 32.106667 90 1 0 64.213333 0 32.576 32.106667 90 1 0-64.213333 0Z" fill="#FF9FA6" p-id="13403"></path>
	<path d="M165.333333 208.618667c37.248 0 67.456-30.656 67.456-68.437334 0-37.802667-30.208-68.458667-67.456-68.458666S97.877333 102.4 97.877333 140.181333c0 37.781333 30.208 68.437333 67.456 68.437334z" fill="#FC5965" p-id="13404"></path>
	<path d="M164.416 140.181333c17.749333 0 32.128-14.570667 32.128-32.576 0-17.984-14.378667-32.576-32.128-32.576-17.728 0-32.106667 14.592-32.106667 32.576 0 18.005333 14.378667 32.576 32.106667 32.576z" fill="#FF9FA6" p-id="13405"></path>
	<path d="M889.088 717.504a57.024 56.213333 90 1 0 112.426667 0 57.024 56.213333 90 1 0-112.426667 0Z" fill="#FD9816" p-id="13406"></path>
	<path d="M934.058667 318.272a45.632 44.970667 90 1 0 89.941333 0 45.632 44.970667 90 1 0-89.941333 0Z" fill="#FC5965" p-id="13407"></path>
	<path d="M979.029333 337.792c17.728 0 32.106667-14.570667 32.106667-32.576 0-17.984-14.378667-32.576-32.106667-32.576-17.728 0-32.106667 14.592-32.106666 32.576 0 18.005333 14.378667 32.576 32.106666 32.576z" fill="#FF9FA6" p-id="13408"></path>
	<path d="M461.888 432.32a45.632 44.970667 90 1 0 89.941333 0 45.632 44.970667 90 1 0-89.941333 0Z" fill="#CF411C" p-id="13409"></path>
	<path d="M510.186667 451.861333c17.728 0 32.106667-14.570667 32.106666-32.576 0-18.005333-14.378667-32.576-32.106666-32.576-17.749333 0-32.128 14.570667-32.128 32.576 0 18.005333 14.378667 32.576 32.128 32.576z" fill="#FC5965" p-id="13410"></path>
	<path d="M12.181333 637.653333a45.632 44.970667 90 1 0 89.941334 0 45.632 44.970667 90 1 0-89.941334 0Z" fill="#FD9816" p-id="13411"></path>
	<path d="M57.152 657.194667c17.728 0 32.106667-14.592 32.106667-32.597334 0-17.984-14.378667-32.576-32.106667-32.576-17.728 0-32.106667 14.592-32.106667 32.576 0 18.005333 14.378667 32.597333 32.106667 32.597334z" fill="#FFB99F" p-id="13412"></path>
	<path d="M504.597333 73.045333a45.632 44.970667 90 1 0 89.941334 0 45.632 44.970667 90 1 0-89.941334 0Z" fill="#FD9816" p-id="13413"></path>
	<path d="M549.546667 92.586667c17.749333 0 32.128-14.592 32.128-32.576 0-18.005333-14.378667-32.597333-32.106667-32.597334-17.749333 0-32.128 14.592-32.128 32.597334 0 17.984 14.378667 32.576 32.128 32.576z" fill="#FFB99F" p-id="13414"></path>
	<path d="M547.413333 854.805333a45.632 44.970667 90 1 0 89.941334 0 45.632 44.970667 90 1 0-89.941334 0Z" fill="#FD9816" p-id="13415"></path>
	<path d="M592.384 874.346667c17.728 0 32.106667-14.592 32.106667-32.576 0-18.005333-14.378667-32.597333-32.106667-32.597334-17.749333 0-32.128 14.592-32.128 32.597334 0 17.984 14.378667 32.576 32.128 32.576zM945.301333 747.349333c23.658667 0 42.816-19.456 42.816-43.434666 0-24-19.157333-43.456-42.816-43.456-23.637333 0-42.816 19.456-42.816 43.456 0 23.978667 19.178667 43.434667 42.816 43.434666z" fill="#FFB99F" p-id="13416"></path>
	<path d="M615.936 265.28c41.749333-30.293333 78.570667-51.754667 125.269333-64.490667 14.186667-3.84 30.933333-6.634667 47.744-8.021333l9.514667-0.64 2.773333 0.042667 3.413334 0.213333c0.597333 0.042667 1.216 0.106667 1.856 0.213333l4.053333 0.597334c15.36 2.858667 35.968 12.672 30.016 43.178666-5.610667 28.693333-31.189333 35.498667-49.6 36.629334l-5.269333 0.192h-2.432l-6.186667-0.256-4.138667-0.341334c-49.429333-4.970667-91.690667 0.917333-137.536 21.546667l-4.906666 2.325333-11.349334 5.674667-5.973333 2.88c-10.922667 5.056-21.226667 8.661333-24.106667 4.117333-6.613333-10.325333 4.8-24.554667 15.530667-34.496l4.202667-3.733333 3.861333-3.157333 3.264-2.474667z" fill="#FD9816" p-id="13385"></path>
</svg>